<svg width="29" height="29" xmlns="http://www.w3.org/2000/svg" xmlns:xlink="http://www.w3.org/1999/xlink" xmlns:svgjs="http://svgjs.com/svgjs" viewBox="0 0 28.999 29"><svg xmlns="http://www.w3.org/2000/svg" width="29" height="29" viewBox="1 1 28 28"><path paint-order="stroke fill markers" fill-rule="evenodd" d="M19.988 17.473l-3.904-2.928V8.58a1.084 1.084 0 1 0-2.168 0v6.507c0 .341.16.663.433.867l4.338 3.254c.195.146.423.217.65.217.33 0 .656-.15.868-.435a1.082 1.082 0 0 0-.217-1.517zM15 1C7.28 1 1 7.28 1 15s6.28 14 14 14 14-6.28 14-14S22.72 1 15 1zm0 25.83C8.477 26.83 3.169 21.524 3.169 15S8.477 3.17 14.999 3.17c6.525 0 11.832 5.307 11.832 11.83S21.523 26.83 15 26.83z"/></svg></svg>