<svg width="29" height="29" xmlns="http://www.w3.org/2000/svg" xmlns:xlink="http://www.w3.org/1999/xlink" xmlns:svgjs="http://svgjs.com/svgjs" viewBox="0 0.291 29 28.419"><svg xmlns="http://www.w3.org/2000/svg" width="29" height="29" viewBox="1 1.284 28 27.439"><path paint-order="stroke fill markers" fill-rule="evenodd" d="M27.198 12.239c-.327-.27-.872-.721-.94-.936-.07-.222.11-.937.217-1.362.258-1.028.58-2.305-.14-3.31-.718-.999-2.008-1.086-3.045-1.157-.43-.032-1.15-.08-1.33-.214-.185-.136-.461-.832-.627-1.25-.408-1.033-.873-2.205-2.008-2.579-1.13-.376-2.162.291-3.07.878-.4.258-1.003.648-1.256.648-.241 0-.837-.396-1.233-.658-.873-.58-1.966-1.299-3.117-.9-1.133.394-1.593 1.559-2.002 2.585-.164.414-.437 1.103-.625 1.244-.182.138-.915.187-1.352.217-1.094.076-2.333.16-3.03 1.168-.683.99-.377 2.209-.106 3.285.107.428.287 1.143.222 1.357-.07.206-.608.658-.93.929C2.012 12.869 1 13.72 1 14.998c0 1.267.993 2.11 1.79 2.785.346.294.868.737.938.956.07.218-.11.925-.22 1.346-.263 1.037-.593 2.327.156 3.341.73.986 2.014 1.073 3.047 1.144.43.03 1.148.078 1.33.214.184.136.46.83.625 1.247.41 1.035.873 2.207 2.01 2.582.227.077.453.11.673.11.87 0 1.673-.52 2.397-.986.4-.258 1.001-.648 1.253-.648.247 0 .84.385 1.23.641.868.564 1.951 1.27 3.1.869 1.132-.395 1.592-1.558 2-2.586.165-.413.438-1.104.626-1.245.184-.138.911-.187 1.346-.217 1.086-.076 2.317-.16 3.024-1.151.711-.996.406-2.229.136-3.314-.105-.425-.28-1.132-.217-1.345.07-.205.608-.658.929-.928.815-.685 1.827-1.539 1.827-2.814 0-1.266-1-2.094-1.802-2.76zm-1.496 3.752c-.677.568-1.377 1.158-1.652 2.003-.281.86-.052 1.782.169 2.673.108.435.288 1.16.264 1.311-.176.135-.902.186-1.336.214-.86.059-1.833.126-2.559.67-.718.537-1.067 1.415-1.404 2.263-.164.419-.441 1.12-.556 1.226-.21 0-.8-.387-1.152-.616-.728-.472-1.553-1.01-2.475-1.01-.924 0-1.756.539-2.492 1.013-.356.23-.953.617-1.08.646-.18-.131-.453-.824-.617-1.238-.34-.858-.692-1.745-1.417-2.279-.721-.53-1.64-.593-2.53-.653-.417-.029-1.196-.082-1.337-.18-.072-.21.11-.924.22-1.35.214-.842.458-1.796.182-2.668-.276-.872-1.011-1.497-1.66-2.048-.317-.27-.908-.771-.958-.953.052-.222.66-.734.986-1.007.676-.57 1.376-1.16 1.652-2.004.283-.867.05-1.795-.175-2.693-.109-.434-.291-1.159-.278-1.297.177-.13.897-.18 1.328-.21.903-.06 1.84-.126 2.565-.668.718-.538 1.067-1.416 1.403-2.264.165-.42.444-1.119.55-1.224.214.004.809.398 1.164.634.734.486 1.567 1.038 2.494 1.038.922 0 1.756-.539 2.49-1.012.356-.23.953-.617 1.08-.646.178.132.453.824.617 1.238.34.857.692 1.746 1.417 2.278.721.532 1.641.595 2.532.655.44.03 1.177.081 1.315.166.07.208-.11.926-.218 1.355-.212.845-.452 1.804-.176 2.679.279.88 1.025 1.498 1.684 2.043.3.25.855.707.94.927-.082.23-.664.72-.98.988zm-5.528-5.445a1.138 1.138 0 0 0-1.63.147l-5.159 6.3-2.195-2.24a1.14 1.14 0 0 0-1.636 0 1.198 1.198 0 0 0 0 1.67l3.09 3.156c.216.223.511.346.818.346.016 0 .033 0 .05-.003.326-.014.628-.168.836-.422l5.97-7.29a1.198 1.198 0 0 0-.144-1.664z"/></svg></svg>