<svg width="30" height="29" xmlns="http://www.w3.org/2000/svg" xmlns:xlink="http://www.w3.org/1999/xlink" xmlns:svgjs="http://svgjs.com/svgjs" viewBox="0 0.081 30 28.838"><svg xmlns="http://www.w3.org/2000/svg" width="30" height="29" viewBox="2.083 1.208 28.834 27.717"><path paint-order="stroke fill markers" fill-rule="evenodd" d="M30.857 11.675a1.215 1.215 0 0 0-.978-.833l-8.497-1.25-3.803-7.759c-.41-.833-1.763-.833-2.173 0l-3.803 7.76-8.483 1.25c-.457.067-.836.39-.978.832-.142.442-.024.927.306 1.252l6.138 6.04-1.444 8.531c-.079.459.108.922.483 1.196a1.206 1.206 0 0 0 1.278.09l7.592-4.026 7.604 4.027a1.2 1.2 0 0 0 1.276-.094c.374-.274.56-.737.482-1.196l-1.455-8.53 6.148-6.04c.331-.323.45-.807.307-1.25zm-8.606 5.99a1.23 1.23 0 0 0-.348 1.084l1.147 6.723-5.994-3.176a1.204 1.204 0 0 0-1.129.001L9.943 25.47l1.138-6.724c.068-.395-.063-.801-.348-1.08l-4.84-4.761 6.69-.988a1.21 1.21 0 0 0 .91-.667l3-6.116 2.997 6.115c.177.36.518.61.912.668l6.697.988-4.848 4.76z"/></svg></svg>