<svg width="17" height="17" xmlns="http://www.w3.org/2000/svg" xmlns:xlink="http://www.w3.org/1999/xlink" xmlns:svgjs="http://svgjs.com/svgjs" viewBox="0.159 0 16.681 17"><svg xmlns="http://www.w3.org/2000/svg" width="17" height="17" viewBox="1.287 2.45 15.234 15.525"><path paint-order="stroke fill markers" fill-rule="evenodd" d="M14.816 13.255c-.988-.801-1.99-1.286-2.965-.486l-.582.484c-.426.352-1.219 1.994-4.282-1.353-3.063-3.343-1.24-3.864-.814-4.212l.586-.484c.97-.803.604-1.814-.096-2.854l-.422-.63C5.538 2.68 4.773 2 3.8 2.802l-.526.435A4.67 4.67 0 0 0 1.351 6.34c-.351 2.204.756 4.729 3.291 7.498 2.533 2.771 5.012 4.163 7.36 4.138 1.954-.018 3.132-1.014 3.5-1.376l.528-.436c.97-.801.368-1.617-.62-2.42l-.594-.488z"/></svg></svg>